<?xml version="1.0" standalone="no"?>
<!DOCTYPE svg PUBLIC "-//W3C//DTD SVG 20010904//EN"
 "http://www.w3.org/TR/2001/REC-SVG-20010904/DTD/svg10.dtd">
<svg version="1.0" xmlns="http://www.w3.org/2000/svg"
 width="260.000000pt" height="260.000000pt" viewBox="0 0 260.000000 260.000000"
 preserveAspectRatio="xMidYMid meet">
<metadata>
Created by potrace 1.11, written by Peter Selinger 2001-2013
</metadata>
<g transform="translate(0.000000,260.000000) scale(0.100000,-0.100000)"
fill="#000000" stroke="none">
<path d="M1608 2152 c-9 -9 -23 -33 -32 -52 -9 -20 -62 -78 -117 -130 -102
-94 -129 -134 -129 -190 0 -46 22 -37 70 30 36 50 77 90 93 90 2 0 -7 -57 -20
-127 -28 -155 -83 -527 -83 -567 0 -21 -14 -46 -48 -85 -108 -124 -176 -245
-188 -333 -9 -64 1 -93 38 -116 137 -82 418 36 680 286 200 190 293 351 307
532 l6 85 73 36 c126 62 120 74 -19 39 l-79 -21 -38 30 c-20 16 -55 35 -77 42
-47 15 -156 17 -240 5 l-60 -8 67 66 c81 81 129 169 130 243 3 102 -51 133
-188 109 -43 -7 -82 -12 -86 -9 -5 2 -8 13 -8 23 0 29 -34 43 -52 22z m250
-121 c31 -39 -19 -132 -132 -249 -78 -80 -172 -159 -181 -150 -9 9 55 331 70
354 39 60 207 91 243 45z m156 -415 c14 -9 26 -20 26 -24 0 -4 -30 -23 -67
-41 -98 -48 -293 -164 -401 -238 -52 -35 -97 -62 -100 -59 -3 4 4 57 16 119
25 127 28 131 144 192 134 71 316 95 382 51z m62 -169 c-22 -173 -220 -414
-491 -597 -116 -79 -190 -110 -256 -110 -69 0 -84 14 -76 67 8 47 60 153 87
178 20 18 21 18 36 -4 22 -31 33 -17 44 55 8 54 14 63 67 113 76 70 242 194
341 254 100 61 234 119 246 107 4 -4 5 -33 2 -63z"/>
<path d="M681 2146 c-20 -24 -88 -181 -144 -331 -116 -312 -267 -899 -267
-1032 1 -86 28 -139 86 -164 42 -19 52 -20 111 -9 138 26 332 145 549 337 73
63 184 192 184 211 0 32 -31 14 -121 -72 -174 -166 -322 -266 -497 -339 -108
-44 -145 -45 -175 -5 -20 26 -20 28 -3 115 45 227 203 851 290 1146 19 64 33
124 30 131 -8 21 -31 27 -43 12z"/>
</g>
</svg>
